<svg width="1200" height="720" viewBox="0 0 1200 720" fill="none" xmlns="http://www.w3.org/2000/svg">
  <rect width="1200" height="720" rx="32" fill="#FCF7EF"/>
  <rect x="88" y="128" width="424" height="464" rx="28" fill="#FFFFFF" stroke="#DCCDBA"/>
  <rect x="688" y="128" width="424" height="464" rx="28" fill="#FFFFFF" stroke="#DCCDBA"/>
  <rect x="168" y="190" width="264" height="204" rx="22" fill="#F3E7D9"/>
  <rect x="768" y="190" width="264" height="204" rx="22" fill="#F3E7D9"/>
  <path d="M236 314C258 274 304 246 352 246C404 246 448 280 460 338C468 376 452 420 420 446C396 466 364 474 334 470C278 462 230 420 224 360C222 344 226 328 236 314Z" fill="#FFD073"/>
  <path d="M836 314C858 274 904 246 952 246C1004 246 1048 280 1060 338C1068 376 1052 420 1020 446C996 466 964 474 934 470C878 462 830 420 824 360C822 344 826 328 836 314Z" fill="#FFD073"/>
  <path d="M290 250C324 274 352 310 378 344" stroke="#CD5C2D" stroke-width="26" stroke-linecap="round" stroke-dasharray="1 38"/>
  <path d="M346 414C372 386 404 354 432 322" stroke="#CD5C2D" stroke-width="26" stroke-linecap="round" stroke-dasharray="1 38"/>
  <text x="142" y="104" fill="#1C2520" font-size="28" font-family="Arial, PingFang SC">修复前：涂抹出问题区域</text>
  <text x="746" y="104" fill="#1C2520" font-size="28" font-family="Arial, PingFang SC">修复后：AI 自动补全画面</text>
  <path d="M552 360H648" stroke="#CD5C2D" stroke-width="10" stroke-linecap="round"/>
  <path d="M624 326L660 360L624 394" stroke="#CD5C2D" stroke-width="10" stroke-linecap="round" stroke-linejoin="round"/>
</svg>
